# xmcd
#
# Track frame offsets:
#	150
#	17057
#	29610
#	43179
#	65475
#	81568
#	101260
#	117017
#	160208
#	178922
#	197426
#	209000
#	231254
#	251492
#	270485
#	297824
#	313017
#
# Disc length: 4528 seconds
#
# Revision: 0
# Processed by: cddbd v1.5.2PL0 Copyright (c) Steve Scherf et al.
# Submitted via: dBpowerAMP V4.0
#
DISCID=f411ae11
DTITLE=Ryan Adams - Gold
DYEAR=1900
DGENRE=Country
TTITLE0=New York, New York
TTITLE1=Firecracker
TTITLE2=Answering Bell
TTITLE3=La Cienga Just Smiled
TTITLE4=The Rescue Blues
TTITLE5=Somehow, Someday
TTITLE6=When The Stars Go Blue
TTITLE7=Nobody Girl
TTITLE8=Sylvia Plath
TTITLE9=Enemy Fire
TTITLE10=Gonna Make You Love Me
TTITLE11=Wild Flowers
TTITLE12=Harder Now That It's Over 
TTITLE13=Touch, Feel and Lose 
TTITLE14=Tina Toledo's Street Walkin' Blues
TTITLE15=Goodnight, Hollywood Blvd. 
TTITLE16=The Bar Is A Beautiful Place
EXTD=Ryan Adams - Gold - Rodolfo Cavazzani
EXTT0=
EXTT1=
EXTT2=
EXTT3=
EXTT4=
EXTT5=
EXTT6=
EXTT7=
EXTT8=
EXTT9=
EXTT10=
EXTT11=
EXTT12=
EXTT13=
EXTT14=
EXTT15=
EXTT16=
PLAYORDER=
